<svg width="360" height="89" viewBox="0 0 360 89" fill="none" xmlns="http://www.w3.org/2000/svg">
<rect width="360" height="89" rx="44.5" fill="white"/>
<path d="M55.2379 36.8516C55.0987 35.549 54.5121 34.5348 53.478 33.8089C52.4538 33.0831 51.1214 32.7202 49.4808 32.7202C48.3274 32.7202 47.3381 32.8942 46.5128 33.2422C45.6875 33.5902 45.0561 34.0625 44.6186 34.6591C44.1811 35.2557 43.9574 35.9368 43.9474 36.7024C43.9474 37.3388 44.0916 37.8906 44.38 38.358C44.6783 38.8253 45.081 39.223 45.5881 39.5511C46.0952 39.8693 46.657 40.1378 47.2734 40.3565C47.8899 40.5753 48.5114 40.7592 49.1378 40.9084L52.0014 41.6243C53.1548 41.8928 54.2635 42.2557 55.3274 42.7131C56.4013 43.1705 57.3608 43.7472 58.206 44.4432C59.0611 45.1392 59.7372 45.9794 60.2344 46.9638C60.7315 47.9482 60.9801 49.1016 60.9801 50.424C60.9801 52.2138 60.5227 53.7898 59.608 55.152C58.6932 56.5043 57.3707 57.5632 55.6406 58.3288C53.9205 59.0845 51.8374 59.4624 49.3913 59.4624C47.0149 59.4624 44.9517 59.0945 43.2017 58.3587C41.4616 57.6229 40.0994 56.549 39.1151 55.1371C38.1406 53.7251 37.6136 52.005 37.5341 49.9766H42.978C43.0575 51.0405 43.3857 51.9254 43.9624 52.6314C44.5391 53.3374 45.2898 53.8643 46.2145 54.2124C47.1491 54.5604 48.1932 54.7344 49.3466 54.7344C50.5497 54.7344 51.6037 54.5554 52.5085 54.1974C53.4233 53.8295 54.1392 53.3224 54.6562 52.6761C55.1733 52.0199 55.4368 51.2543 55.4467 50.3793C55.4368 49.5838 55.2031 48.9276 54.7457 48.4105C54.2884 47.8835 53.647 47.446 52.8217 47.098C52.0064 46.7401 51.0518 46.4219 49.9581 46.1435L46.483 45.2486C43.9673 44.6023 41.9787 43.6229 40.517 42.3104C39.0653 40.9879 38.3395 39.233 38.3395 37.0455C38.3395 35.2457 38.8267 33.6697 39.8011 32.3175C40.7855 30.9652 42.1229 29.9162 43.8132 29.1705C45.5036 28.4148 47.4176 28.0369 49.5554 28.0369C51.723 28.0369 53.6222 28.4148 55.2528 29.1705C56.8935 29.9162 58.1811 30.9553 59.1158 32.2876C60.0504 33.6101 60.5327 35.1314 60.5625 36.8516H55.2379ZM65.6745 59V36.0909H70.835V39.9837H71.1035C71.5808 38.6712 72.3713 37.647 73.475 36.9112C74.5787 36.1655 75.8961 35.7926 77.4274 35.7926C78.9785 35.7926 80.286 36.1705 81.35 36.9261C82.4238 37.6719 83.1795 38.6911 83.617 39.9837H83.8556C84.3628 38.7109 85.2179 37.6967 86.421 36.9411C87.6341 36.1754 89.0708 35.7926 90.7314 35.7926C92.8393 35.7926 94.5595 36.4588 95.8919 37.7912C97.2243 39.1236 97.8904 41.0675 97.8904 43.6229V59H92.4764V44.4581C92.4764 43.0362 92.0985 41.9972 91.3429 41.3409C90.5872 40.6747 89.6625 40.3416 88.5687 40.3416C87.2662 40.3416 86.247 40.7493 85.5112 41.5646C84.7853 42.37 84.4224 43.419 84.4224 44.7116V59H79.1277V44.2344C79.1277 43.0511 78.7697 42.1065 78.0538 41.4006C77.3478 40.6946 76.4231 40.3416 75.2797 40.3416C74.5041 40.3416 73.7981 40.5405 73.1618 40.9382C72.5254 41.326 72.0183 41.8778 71.6404 42.5938C71.2626 43.2997 71.0737 44.125 71.0737 45.0696V59H65.6745ZM109.96 59.4624C108.509 59.4624 107.201 59.2038 106.038 58.6868C104.884 58.1598 103.969 57.3842 103.293 56.3601C102.627 55.3359 102.294 54.0732 102.294 52.5717C102.294 51.2791 102.533 50.2102 103.01 49.3651C103.487 48.5199 104.138 47.8438 104.964 47.3366C105.789 46.8295 106.719 46.4467 107.753 46.1882C108.797 45.9197 109.876 45.7259 110.989 45.6065C112.332 45.4673 113.42 45.343 114.256 45.2337C115.091 45.1143 115.697 44.9354 116.075 44.6967C116.463 44.4482 116.657 44.0653 116.657 43.5483V43.4588C116.657 42.3352 116.324 41.4652 115.658 40.8487C114.991 40.2322 114.032 39.924 112.779 39.924C111.457 39.924 110.408 40.2124 109.632 40.7891C108.866 41.3658 108.349 42.0469 108.081 42.8324L103.04 42.1165C103.438 40.7244 104.094 39.5611 105.009 38.6264C105.923 37.6818 107.042 36.9759 108.364 36.5085C109.687 36.0312 111.148 35.7926 112.749 35.7926C113.853 35.7926 114.952 35.9219 116.045 36.1804C117.139 36.4389 118.138 36.8665 119.043 37.4631C119.948 38.0497 120.674 38.8501 121.221 39.8643C121.778 40.8786 122.056 42.1463 122.056 43.6676V59H116.866V55.853H116.687C116.359 56.4893 115.896 57.0859 115.3 57.6428C114.713 58.1896 113.972 58.6321 113.077 58.9702C112.192 59.2983 111.153 59.4624 109.96 59.4624ZM111.362 55.495C112.446 55.495 113.386 55.2812 114.181 54.8537C114.977 54.4162 115.588 53.8395 116.016 53.1236C116.453 52.4077 116.672 51.6271 116.672 50.782V48.0824C116.503 48.2216 116.214 48.3509 115.807 48.4702C115.409 48.5895 114.962 48.6939 114.464 48.7834C113.967 48.8729 113.475 48.9524 112.988 49.022C112.501 49.0916 112.078 49.1513 111.72 49.201C110.915 49.3104 110.194 49.4893 109.558 49.7379C108.921 49.9865 108.419 50.3345 108.051 50.782C107.683 51.2195 107.499 51.7862 107.499 52.4822C107.499 53.4766 107.862 54.2273 108.588 54.7344C109.314 55.2415 110.239 55.495 111.362 55.495ZM127.485 59V36.0909H132.72V39.9091H132.959C133.376 38.5866 134.092 37.5675 135.107 36.8516C136.131 36.1257 137.299 35.7628 138.612 35.7628C138.91 35.7628 139.243 35.7777 139.611 35.8075C139.989 35.8274 140.302 35.8622 140.55 35.9119V40.8786C140.322 40.799 139.959 40.7294 139.462 40.6697C138.974 40.6001 138.502 40.5653 138.045 40.5653C137.06 40.5653 136.175 40.7791 135.39 41.2067C134.614 41.6243 134.003 42.206 133.555 42.9517C133.108 43.6974 132.884 44.5575 132.884 45.532V59H127.485ZM156.808 36.0909V40.267H143.638V36.0909H156.808ZM146.889 30.6023H152.288V52.1094C152.288 52.8352 152.398 53.392 152.616 53.7798C152.845 54.1577 153.143 54.4162 153.511 54.5554C153.879 54.6946 154.287 54.7642 154.734 54.7642C155.072 54.7642 155.381 54.7393 155.659 54.6896C155.947 54.6399 156.166 54.5952 156.315 54.5554L157.225 58.7763C156.937 58.8757 156.524 58.9851 155.987 59.1044C155.46 59.2237 154.814 59.2933 154.048 59.3132C152.696 59.353 151.478 59.1491 150.394 58.7017C149.31 58.2443 148.45 57.5384 147.814 56.5838C147.188 55.6293 146.879 54.4361 146.889 53.0043V30.6023Z" fill="#1E1E1E"/>
<path d="M162.054 28.4545H168.825L177.893 50.5881H178.251L187.319 28.4545H194.091V59H188.781V38.0149H188.498L180.056 58.9105H176.089L167.647 37.9702H167.363V59H162.054V28.4545ZM210.02 59.4474C207.723 59.4474 205.739 58.9702 204.069 58.0156C202.408 57.0511 201.131 55.6889 200.236 53.929C199.341 52.1591 198.893 50.076 198.893 47.6797C198.893 45.3232 199.341 43.255 200.236 41.4751C201.14 39.6854 202.403 38.2933 204.024 37.299C205.645 36.2947 207.549 35.7926 209.736 35.7926C211.148 35.7926 212.481 36.0213 213.733 36.4787C214.996 36.9261 216.11 37.6222 217.074 38.5668C218.049 39.5114 218.814 40.7145 219.371 42.1761C219.928 43.6278 220.207 45.358 220.207 47.3665V49.022H201.429V45.3828H215.031C215.021 44.3487 214.797 43.429 214.36 42.6236C213.922 41.8082 213.311 41.1669 212.525 40.6996C211.75 40.2322 210.845 39.9986 209.811 39.9986C208.707 39.9986 207.738 40.267 206.903 40.804C206.067 41.331 205.416 42.027 204.949 42.892C204.491 43.7472 204.258 44.6868 204.248 45.7109V48.8878C204.248 50.2202 204.491 51.3636 204.979 52.3182C205.466 53.2628 206.147 53.9886 207.022 54.4957C207.897 54.9929 208.921 55.2415 210.094 55.2415C210.88 55.2415 211.591 55.1321 212.227 54.9134C212.863 54.6847 213.415 54.3516 213.883 53.9141C214.35 53.4766 214.703 52.9347 214.942 52.2884L219.983 52.8551C219.665 54.1875 219.058 55.3509 218.163 56.3452C217.278 57.3295 216.145 58.0952 214.763 58.642C213.381 59.179 211.8 59.4474 210.02 59.4474ZM233.276 59.4027C231.476 59.4027 229.865 58.9403 228.443 58.0156C227.021 57.0909 225.898 55.7486 225.072 53.9886C224.247 52.2287 223.835 50.0909 223.835 47.5753C223.835 45.0298 224.252 42.8821 225.087 41.1321C225.933 39.3722 227.071 38.0447 228.503 37.1499C229.935 36.245 231.531 35.7926 233.29 35.7926C234.633 35.7926 235.737 36.0213 236.602 36.4787C237.467 36.9261 238.153 37.468 238.66 38.1044C239.167 38.7308 239.56 39.3224 239.838 39.8793H240.062V28.4545H245.476V59H240.166V55.3906H239.838C239.56 55.9474 239.157 56.5391 238.63 57.1655C238.103 57.782 237.407 58.3089 236.542 58.7464C235.677 59.1839 234.588 59.4027 233.276 59.4027ZM234.782 54.973C235.925 54.973 236.9 54.6648 237.705 54.0483C238.511 53.4219 239.122 52.5518 239.54 51.4382C239.957 50.3246 240.166 49.027 240.166 47.5455C240.166 46.0639 239.957 44.7763 239.54 43.6825C239.132 42.5888 238.526 41.7386 237.72 41.1321C236.925 40.5256 235.945 40.2223 234.782 40.2223C233.579 40.2223 232.575 40.5355 231.769 41.1619C230.964 41.7884 230.357 42.6534 229.95 43.7571C229.542 44.8608 229.338 46.1236 229.338 47.5455C229.338 48.9773 229.542 50.255 229.95 51.3786C230.367 52.4922 230.979 53.3722 231.784 54.0185C232.599 54.6548 233.599 54.973 234.782 54.973ZM251.468 59V28.4545H263.161C265.368 28.4545 267.203 28.8026 268.665 29.4986C270.136 30.1847 271.235 31.1243 271.961 32.3175C272.697 33.5107 273.064 34.8629 273.064 36.3743C273.064 37.6172 272.826 38.6811 272.349 39.5661C271.871 40.4411 271.23 41.152 270.425 41.6989C269.619 42.2457 268.719 42.6385 267.725 42.8771V43.1754C268.809 43.2351 269.848 43.5682 270.842 44.1747C271.846 44.7713 272.667 45.6165 273.303 46.7102C273.939 47.804 274.258 49.1264 274.258 50.6776C274.258 52.2585 273.875 53.6804 273.109 54.9432C272.344 56.196 271.19 57.1854 269.649 57.9112C268.108 58.6371 266.169 59 263.832 59H251.468ZM257.001 54.3764H262.952C264.961 54.3764 266.407 53.9936 267.292 53.228C268.187 52.4524 268.635 51.4581 268.635 50.245C268.635 49.3402 268.411 48.5249 267.964 47.799C267.516 47.0632 266.88 46.4865 266.055 46.0689C265.229 45.6413 264.245 45.4276 263.101 45.4276H257.001V54.3764ZM257.001 41.4453H262.475C263.43 41.4453 264.29 41.2713 265.055 40.9233C265.821 40.5653 266.422 40.0632 266.86 39.4169C267.307 38.7607 267.531 37.9851 267.531 37.0902C267.531 35.907 267.113 34.9325 266.278 34.1669C265.453 33.4013 264.225 33.0185 262.594 33.0185H257.001V41.4453ZM288.826 59.4474C286.588 59.4474 284.65 58.9553 283.009 57.9709C281.368 56.9865 280.096 55.6094 279.191 53.8395C278.296 52.0696 277.848 50.0014 277.848 47.6349C277.848 45.2685 278.296 43.1953 279.191 41.4155C280.096 39.6357 281.368 38.2536 283.009 37.2692C284.65 36.2848 286.588 35.7926 288.826 35.7926C291.063 35.7926 293.002 36.2848 294.642 37.2692C296.283 38.2536 297.551 39.6357 298.446 41.4155C299.35 43.1953 299.803 45.2685 299.803 47.6349C299.803 50.0014 299.35 52.0696 298.446 53.8395C297.551 55.6094 296.283 56.9865 294.642 57.9709C293.002 58.9553 291.063 59.4474 288.826 59.4474ZM288.855 55.1222C290.069 55.1222 291.083 54.7891 291.898 54.1229C292.713 53.4467 293.32 52.5419 293.718 51.4084C294.125 50.2749 294.329 49.0121 294.329 47.62C294.329 46.218 294.125 44.9503 293.718 43.8168C293.32 42.6733 292.713 41.7635 291.898 41.0874C291.083 40.4112 290.069 40.0732 288.855 40.0732C287.613 40.0732 286.578 40.4112 285.753 41.0874C284.938 41.7635 284.326 42.6733 283.919 43.8168C283.521 44.9503 283.322 46.218 283.322 47.62C283.322 49.0121 283.521 50.2749 283.919 51.4084C284.326 52.5419 284.938 53.4467 285.753 54.1229C286.578 54.7891 287.613 55.1222 288.855 55.1222ZM307.939 36.0909L312.562 44.5476L317.261 36.0909H322.973L316.067 47.5455L323.092 59H317.41L312.562 50.7521L307.76 59H302.033L309.013 47.5455L302.212 36.0909H307.939Z" fill="#CD0000"/>
</svg>
